<?xml version="1.0" encoding="utf-8"?>
<!-- Generator: Adobe Illustrator 27.9.6, SVG Export Plug-In . SVG Version: 9.03 Build 54986)  -->
<svg version="1.1" id="Layer_1" xmlns="http://www.w3.org/2000/svg" xmlns:xlink="http://www.w3.org/1999/xlink" x="0px" y="0px"
	 viewBox="0 0 32 38" style="enable-background:new 0 0 32 38;" xml:space="preserve">
<style type="text/css">
	.st0{fill:#F05523;}
</style>
<g>
	<path class="st0" d="M18.9,19.5c1.8-2.4,0.1-5.9-2.9-5.9c-3,0-4.8,3.5-2.9,5.9c1,1.2,1.5,2.7,1.5,4.2l0,0c0,1.6-0.6,3.1-1.5,4.2
		c-1.8,2.4-0.1,5.9,2.9,5.9c3,0,4.8-3.5,2.9-5.9c-1-1.2-1.5-2.7-1.5-4.2l0,0C17.4,22.2,17.9,20.7,18.9,19.5z"/>
	<path class="st0" d="M26.7,10.6c-1.5,0.3-3.1,0-4.4-0.8l0,0c-1.4-0.8-2.4-2-2.9-3.5c-1.2-3-5.6-3-6.8,0C12.1,7.8,11.1,9,9.7,9.8
		l0,0c-1.4,0.8-2.9,1-4.4,0.8c-3-0.4-5.2,2.9-3.6,5.5c1.5,2.7,5.5,2.4,6.6-0.4c2.8-7.1,12.9-7.1,15.6,0c1.2,2.8,5.1,3.1,6.6,0.4
		C31.9,13.5,29.8,10.2,26.7,10.6z"/>
</g>
</svg>